<svg width="23" height="23" viewBox="0 0 23 23" fill="none" xmlns="http://www.w3.org/2000/svg">
<path fill-rule="evenodd" clip-rule="evenodd" d="M6.70825 6.70817V9.58317H5.74992C4.72608 9.58317 3.83325 10.3272 3.83325 11.3401V19.3262C3.83325 20.3391 4.72608 21.0832 5.74992 21.0832H17.2499C18.2738 21.0832 19.1666 20.3391 19.1666 19.3262V11.3401C19.1666 10.3272 18.2738 9.58317 17.2499 9.58317H16.2916V6.70817C16.2916 4.06181 14.1463 1.9165 11.4999 1.9165C8.85355 1.9165 6.70825 4.06181 6.70825 6.70817ZM14.3749 6.70817V9.58317H8.62492V6.70817C8.62492 5.12035 9.9121 3.83317 11.4999 3.83317C13.0877 3.83317 14.3749 5.12035 14.3749 6.70817ZM5.74992 19.1665V11.4998H17.2499V19.1665H5.74992ZM12.4583 15.3332C12.4583 15.8624 12.0292 16.2915 11.4999 16.2915C10.9706 16.2915 10.5416 15.8624 10.5416 15.3332C10.5416 14.8039 10.9706 14.3748 11.4999 14.3748C12.0292 14.3748 12.4583 14.8039 12.4583 15.3332Z" fill="#929AA2"/>
</svg>
