<svg width="25" height="25" viewBox="0 0 25 25" fill="none" xmlns="http://www.w3.org/2000/svg">
<path d="M20.4998 16.4999C20.4998 16.8507 20.4011 17.1759 20.2431 17.462L15.1912 11.8097L20.1883 7.43765C20.3827 7.74614 20.4998 8.10851 20.4998 8.50009V16.4999ZM12.4998 12.836L19.4531 6.752C19.1677 6.59579 18.8464 6.5 18.4998 6.5H6.49974C6.15271 6.5 5.8313 6.59579 5.54712 6.752L12.4998 12.836ZM14.4383 12.4679L12.8288 13.8771C12.7347 13.9591 12.6174 14 12.4998 14C12.3821 14 12.2648 13.9591 12.1707 13.8771L10.5608 12.4678L5.44506 18.1924C5.7517 18.3848 6.11106 18.5 6.49971 18.5H18.4998C18.8884 18.5 19.2479 18.3848 19.5545 18.1924L14.4383 12.4679ZM4.81131 7.43762C4.61695 7.74611 4.49976 8.10847 4.49976 8.50009V16.5C4.49976 16.8507 4.59796 17.1759 4.7566 17.462L9.80787 11.8087L4.81131 7.43762Z" fill="#929AA2"/>
</svg>
