<svg xmlns="http://www.w3.org/2000/svg" viewBox="0 0 15.33 19.17"><defs><style>.cls-1{fill:#929aa2;fill-rule:evenodd;}</style></defs><g id="Слой_2" data-name="Слой 2"><g id="Слой_1-2" data-name="Слой 1"><path class="cls-1" d="M2.88,4.79V7.67h-1A1.83,1.83,0,0,0,0,9.42v8a1.84,1.84,0,0,0,1.92,1.76h11.5a1.84,1.84,0,0,0,1.91-1.76v-8a1.83,1.83,0,0,0-1.91-1.75h-1V4.79a4.79,4.79,0,0,0-9.58,0Zm7.66,0V7.67H4.79V4.79a2.88,2.88,0,0,1,5.75,0ZM1.92,17.25V9.58h11.5v7.67Zm6.7-3.83a1,1,0,1,1-.95-1A1,1,0,0,1,8.62,13.42Z"/></g></g></svg>